:SAMPLES-PER-SECOND 30
:FULLY-SPECIFIED
:DEGREES
122
root  34.87934803 36.50296129 -14.65725786 11.40079784 10.8063879 4.339392662
lowerback  -8.091130257 3.311470032 3.512819529
upperback  -4.421959877 3.807430029 -4.766280174
thorax  0.4981639981 1.638139963 -6.618569851
lowerneck  -15.80070019 -0.496329993 1.831509948
upperneck  11.05130005 -2.146680117 6.056660175
head  6.000659943 -0.5505180359 1.417479992
lclavicle  0 -4.497500157e-015 -2.743230041e-014
lhumerus  -43.99020004 27.03960037 67.45829773
lradius  -0.4919798374 -6.507048965e-006 26.78879929
lwrist  4.824992743e-007 -3.790274832e-007 -32.54850006
lhand  -0 -36.84529877 -10.55770016
lfingers  90 7.125020027 -90
lthumb  94.76564136 -25.3976495 100.9998888
rclavicle  0 -4.497500157e-015 -2.743230041e-014
rhumerus  63.34190369 0.1319499463 -52.18190002
rradius  -5.16745672e-007 2.214343908e-008 61.06919861
rwrist  1.129822067e-006 0.001802438172 -169.6289978
rhand  -1.771433873e-031 4.666210175 -5.528580189
rfingers  -90 -7.125020027 -90
rthumb  -83.97920484 -10.27595217 -59.4066407
rfemur  -13.66753483 10.96988869 14.70285225
rtibia  -2.596460581 2.135674953 23.15852737
rfoot  -2.20251894 -15.00437927 -44.18002701
rtoes  4.088435913 19.59443019 -102.0318813
lfemur  -11.47558975 -21.9241066 -18.68018913
ltibia  3.708132982 2.379244328 14.21840096
lfoot  0.7143993974 -29.52370453 29.58696938
ltoes  -8.502608511 -18.17000487 -115.6134511
123
root  34.87691804 36.49917663 -14.65677427 11.38131618 11.08298779 4.424751282
lowerback  -8.116330147 3.340440035 3.618040323
upperback  -4.444419861 3.837510109 -4.788990021
thorax  0.500846982 1.650840044 -6.699610233
lowerneck  -15.82089996 -0.584856987 1.765349984
upperneck  11.04920006 -2.260440111 6.108459949
head  6.007390022 -0.6045200825 1.433560014
lclavicle  0 -4.497500157e-015 -2.743230041e-014
lhumerus  -43.9048996 27.0121994 67.53029633
lradius  -0.4916629493 -6.507048965e-006 26.76639748
lwrist  4.824992743e-007 -3.790274832e-007 -32.42279816
lhand  -0 -36.83779907 -10.6086998
lfingers  90 7.125020027 -90
lthumb  94.77290516 -25.4479213 100.9965
rclavicle  0 -4.497500157e-015 -2.743230041e-014
rhumerus  63.96549606 -0.006769431755 -52.23960495
rradius  -5.16745672e-007 2.214343908e-008 60.18880081
rwrist  1.129822067e-006 0.001802438172 -169.3939972
rhand  -1.771636887e-031 4.745969772 -5.534170151
rfingers  -90 -7.125020027 -90
rthumb  -83.96118872 -10.27509742 -59.32896236
rfemur  -13.62507629 10.89642525 14.70106411
rtibia  -2.658713102 2.170105934 23.26669312
rfoot  -2.27091074 -14.8796854 -44.31790543
rtoes  4.083322932 19.59545618 -102.0166354
lfemur  -11.28725433 -21.97959328 -18.81864166
ltibia  3.8280828 2.424534321 13.97919369
lfoot  0.7137691379 -29.54956245 29.44260216
ltoes  -8.512215241 -18.16562591 -115.6442615
124
root  34.87147234 36.49503453 -14.65983954 11.39613152 11.33959007 4.475321293
lowerback  -8.133680344 3.368240356 3.638580799
upperback  -4.467289925 3.871180058 -4.803339958
thorax  0.4936389923 1.665969968 -6.723090172
lowerneck  -15.80090046 -0.6680219769 1.797819972
upperneck  11.05109978 -2.371720076 6.063000202
head  6.007069588 -0.6609140038 1.402950048
lclavicle  0 -4.497500157e-015 -2.743230041e-014
lhumerus  -43.84579849 26.8227005 67.67420197
lradius  -0.4913311303 -6.507048965e-006 26.8064003
lwrist  4.824992743e-007 -3.790274832e-007 -32.15869904
lhand  -4.41623136e-031 -36.91009903 -10.67959976
lfingers  90 7.125020027 -90
lthumb  94.82177915 -25.51501397 101.0802528
rclavicle  0 -4.497500157e-015 -2.743230041e-014
rhumerus  64.53700256 -0.04873117432 -52.21419907
rradius  -5.16745672e-007 2.214343908e-008 59.33739853
rwrist  1.129822067e-006 0.001802438172 -168.9219971
rhand  -1.771502993e-031 4.693520069 -5.419750214
rfingers  -90 -7.125020027 -90
rthumb  -83.91567908 -10.37096669 -59.36972204
rfemur  -13.63497353 10.83914948 14.72563648
rtibia  -2.713654518 2.213058233 23.36417961
rfoot  -2.333436966 -14.76238632 -44.45651627
rtoes  4.07987854 19.59614658 -102.0063654
lfemur  -11.25943565 -22.06323624 -18.84848022
ltibia  3.87354207 2.461665154 13.89574623
lfoot  0.7153730989 -29.59376335 29.32643509
ltoes  -8.515622349 -18.16407139 -115.6551904
125
root  34.86610172 36.49363781 -14.66737432 11.44420815 11.576087 4.503069878
lowerback  -8.127300262 3.387860298 3.601990223
upperback  -4.485129833 3.899070024 -4.801459789
thorax  0.4731509984 1.679290056 -6.697999954
lowerneck  -15.75430012 -0.7634609938 1.747419953
upperneck  11.05770016 -2.499200106 6.124639988
head  6.005189896 -0.7216729522 1.418230176
lclavicle  0 -4.497500157e-015 -2.743230041e-014
lhumerus  -43.84460068 26.66159821 67.80130005
lradius  -0.4909850061 -6.507048965e-006 26.88679886
lwrist  4.824992743e-007 -3.790274832e-007 -31.93370056
lhand  -4.413698376e-031 -36.86629868 -10.68089962
lfingers  90 7.125020027 -90
lthumb  94.80151546 -25.51787425 101.0334935
rclavicle  0 -4.497500157e-015 -2.743230041e-014
rhumerus  65.12860107 -0.09674774855 -52.29320145
rradius  -5.16745672e-007 2.214343908e-008 58.45690155
rwrist  1.129822067e-006 0.001802438172 -168.5549927
rhand  -1.771358111e-031 4.636089802 -5.488780022
rfingers  -90 -7.125020027 -90
rthumb  -83.96649753 -10.30875273 -59.43245224
rfemur  -13.69841194 10.74122334 14.76551533
rtibia  -2.770655394 2.236791372 23.45620537
rfoot  -2.394491434 -14.68621063 -44.56906128
rtoes  4.079629967 19.59619638 -102.0056242
lfemur  -11.40533352 -22.20335007 -18.78395081
ltibia  3.836982012 2.47861886 13.99479198
lfoot  0.7216962576 -29.64983559 29.2429409
ltoes  -8.559300695 -18.14407424 -115.7953768
